<svg width="11" height="21" viewBox="0 0 11 21" fill="none" xmlns="http://www.w3.org/2000/svg">
<path d="M0.480171 0.769323C0.335706 0.90326 0.219041 1.06434 0.136835 1.24337C0.0546294 1.4224 0.00849552 1.61587 0.0010669 1.81274C-0.00636172 2.0096 0.0250601 2.20599 0.0935397 2.39071C0.162019 2.57543 0.266214 2.74485 0.400174 2.88929L7.45394 10.3692L0.400174 17.849C0.26623 17.9935 0.162049 18.1629 0.0935797 18.3476C0.0251101 18.5323 -0.00630813 18.7287 0.0011203 18.9256C0.00854874 19.1225 0.0546776 19.3159 0.136873 19.495C0.219069 19.674 0.335722 19.8351 0.480171 19.969C0.62462 20.103 0.794037 20.2071 0.978749 20.2756C1.16346 20.3441 1.35985 20.3755 1.5567 20.3681C1.75356 20.3606 1.94702 20.3145 2.12605 20.2323C2.30507 20.1501 2.46616 20.0335 2.6001 19.889L10.5998 11.3892C10.8571 11.1118 11 10.7475 11 10.3692C11 9.99088 10.8571 9.62655 10.5998 9.34918L2.6001 0.849321C2.46617 0.704854 2.30509 0.588186 2.12606 0.505979C1.94703 0.423771 1.75356 0.377636 1.55671 0.370208C1.35985 0.362779 1.16345 0.394202 0.978741 0.462683C0.794028 0.531164 0.624612 0.635361 0.480171 0.769323Z" fill="black"/>
</svg>
