<svg width="11" height="21" viewBox="0 0 11 21" fill="none" xmlns="http://www.w3.org/2000/svg">
<path d="M10.5198 1.26932C10.6643 1.40326 10.781 1.56434 10.8632 1.74337C10.9454 1.9224 10.9915 2.11587 10.9989 2.31274C11.0064 2.5096 10.9749 2.70599 10.9065 2.89071C10.838 3.07543 10.7338 3.24485 10.5998 3.38929L3.54606 10.8692L10.5998 18.349C10.7338 18.4935 10.838 18.6629 10.9064 18.8476C10.9749 19.0323 11.0063 19.2287 10.9989 19.4256C10.9915 19.6225 10.9453 19.8159 10.8631 19.995C10.7809 20.174 10.6643 20.3351 10.5198 20.469C10.3754 20.603 10.206 20.7071 10.0213 20.7756C9.83654 20.8441 9.64015 20.8755 9.4433 20.8681C9.24644 20.8606 9.05298 20.8145 8.87395 20.7323C8.69493 20.6501 8.53384 20.5335 8.3999 20.389L0.400168 11.8892C0.142934 11.6118 0 11.2475 0 10.8692C0 10.4909 0.142934 10.1266 0.400168 9.84918L8.3999 1.34932C8.53383 1.20485 8.69491 1.08819 8.87394 1.00598C9.05297 0.923771 9.24644 0.877636 9.44329 0.870208C9.64015 0.862779 9.83655 0.894202 10.0213 0.962683C10.206 1.03116 10.3754 1.13536 10.5198 1.26932Z" fill="#00171F"/>
</svg>
