<svg width="58" height="57" viewBox="0 0 58 57" fill="none" xmlns="http://www.w3.org/2000/svg">
<path d="M57.125 23.6816V33.0566C57.125 35.6421 55.0229 37.7441 52.4375 37.7441H51.1613C49.3687 48.3679 40.1273 56.4941 29 56.4941C27.9636 56.4941 27.125 55.6555 27.125 54.6191C27.125 53.5828 27.9636 52.7441 29 52.7441C39.3381 52.7441 47.75 44.3323 47.75 33.9941V22.7441C47.75 12.406 39.3381 3.99414 29 3.99414C18.6619 3.99414 10.25 12.406 10.25 22.7441V35.8691C10.25 36.9055 9.41138 37.7441 8.375 37.7441H5.5625C2.97705 37.7441 0.875 35.6421 0.875 33.0566V23.6816C0.875 21.0962 2.97705 18.9941 5.5625 18.9941H6.83875C8.63135 8.37036 17.8727 0.244141 29 0.244141C40.1273 0.244141 49.3687 8.37036 51.1613 18.9941H52.4375C55.0229 18.9941 57.125 21.0962 57.125 23.6816ZM29 7.74414C20.7291 7.74414 14 14.4733 14 22.7441V32.1191C14 40.39 20.7291 47.1191 29 47.1191C37.2709 47.1191 44 40.39 44 32.1191V22.7441C44 14.4733 37.2709 7.74414 29 7.74414Z" fill="#007EA7"/>
</svg>
